# xmcd
#
# Track frame offsets:
#	150
#	48380
#	84381
#	112558
#	140576
#	168118
#
# Disc length: 2825 seconds
#
# Revision: 0
# Processed by: cddbd v1.5.2PL0 Copyright (c) Steve Scherf et al.
# Submitted via: EasyCDDAExtractor 10.0.1.1
#
DISCID=3d0b0706
DTITLE=Various Artist - Blues in the Pocket
DYEAR=2006
DGENRE=Blues
TTITLE0=John Coltrane - Blue Train
TTITLE1=Sonny Rollins - Decisions
TTITLE2=Horace Parlan - Wadin'
TTITLE3=Lou Donaldson - Hog Maw
TTITLE4=Ike Quebec - Easy-Don't Hurt
TTITLE5=Donald Byrd - Slow Drag
EXTD=
EXTT0=
EXTT1=
EXTT2=
EXTT3=
EXTT4=
EXTT5=
PLAYORDER=
